<?xml version="1.0" encoding="UTF-8"?>
<svg xmlns="http://www.w3.org/2000/svg" xmlns:xlink="http://www.w3.org/1999/xlink" width="567pt" height="567pt" viewBox="0 0 567 567" version="1.1">
<g id="surface1">
<path style=" stroke:none;fill-rule:evenodd;fill:rgb(93.009949%,11.819458%,13.978577%);fill-opacity:1;" d="M 174.632813 396.367188 C 167.46875 396.367188 159.929688 396.492188 152.394531 396.308594 C 148.882813 396.226563 145.359375 395.667969 141.878906 395.074219 C 136.359375 394.140625 131.917969 391.214844 128.917969 386.570313 C 124.554688 379.800781 120.484375 372.832031 116.359375 365.898438 C 112.875 360.050781 109.503906 354.128906 105.859375 347.875 C 105.675781 348.652344 105.511719 349.035156 105.511719 349.421875 C 105.527344 360.316406 105.5 371.21875 105.609375 382.101563 C 105.660156 387.804688 107.421875 392.800781 112.785156 396.464844 L 67.859375 396.464844 C 67.890625 396.269531 67.875 396.089844 67.941406 396.039063 C 73.347656 392.1875 74.582031 386.507813 74.601563 380.410156 C 74.648438 354.421875 74.632813 328.429688 74.601563 302.433594 C 74.601563 300.480469 74.347656 298.511719 74.019531 296.578125 C 73.289063 292.402344 71.214844 289.011719 67.148438 286.328125 L 112.226563 286.328125 C 112.246094 286.472656 112.289063 286.660156 112.246094 286.695313 C 107.175781 290.347656 105.566406 295.601563 105.535156 301.484375 C 105.464844 312.449219 105.5 323.410156 105.511719 334.371094 C 105.511719 334.667969 105.609375 334.96875 105.714844 335.570313 C 106.316406 334.894531 106.765625 334.453125 107.148438 333.96875 C 114.691406 324.449219 122.25 314.960938 129.730469 305.398438 C 131.132813 303.597656 132.40625 301.652344 133.394531 299.609375 C 135.300781 295.65625 134.457031 292.089844 131.179688 289.148438 C 130.164063 288.234375 129.050781 287.457031 127.625 286.351563 L 168.828125 286.351563 C 168.1875 287.152344 167.730469 287.757813 167.253906 288.332031 C 155.855469 301.972656 144.449219 315.621094 132.988281 329.214844 C 131.886719 330.515625 131.726563 331.371094 132.691406 332.882813 C 143.867188 350.421875 154.867188 368.050781 166.113281 385.539063 C 168.628906 389.457031 171.882813 392.90625 174.632813 396.367188 "/>
<path style=" stroke:none;fill-rule:evenodd;fill:rgb(93.009949%,11.819458%,13.978577%);fill-opacity:1;" d="M 443.390625 347.671875 C 439.472656 336.476563 435.671875 325.632813 431.871094 314.789063 C 431.703125 314.816406 431.53125 314.835938 431.378906 314.863281 C 427.734375 325.726563 424.117188 336.59375 420.410156 347.671875 Z M 499.621094 396.550781 L 448.730469 396.550781 C 449.746094 395.78125 450.378906 395.300781 451.011719 394.828125 C 455.488281 391.460938 456.976563 387.101563 455.257813 381.824219 C 453.367188 376.039063 451.308594 370.3125 449.386719 364.535156 C 449.023438 363.441406 448.425781 363.15625 447.378906 363.15625 C 437.265625 363.179688 427.15625 363.152344 417.054688 363.21875 C 416.4375 363.222656 415.425781 363.730469 415.257813 364.226563 C 413.066406 370.601563 410.882813 376.984375 408.917969 383.425781 C 407.519531 388 408.992188 391.8125 412.714844 394.769531 C 413.285156 395.203125 413.796875 395.710938 414.613281 396.464844 L 380.445313 396.464844 C 380.539063 396.234375 380.550781 395.960938 380.707031 395.820313 C 386.171875 390.84375 389.214844 384.441406 391.550781 377.609375 C 400.160156 352.53125 408.804688 327.46875 417.414063 302.386719 C 417.929688 300.90625 418.273438 299.359375 418.523438 297.820313 C 419.074219 294.136719 417.71875 291.132813 415.007813 288.691406 C 414.195313 287.957031 413.332031 287.273438 412.121094 286.257813 C 413.261719 286.203125 413.945313 286.144531 414.640625 286.144531 C 426.703125 286.140625 438.78125 286.183594 450.851563 286.101563 C 452.707031 286.089844 453.578125 286.597656 454.234375 288.40625 C 464.957031 317.816406 475.804688 347.167969 486.488281 376.589844 C 489.160156 383.960938 492.988281 390.457031 498.90625 395.636719 C 499.09375 395.804688 499.222656 396.03125 499.621094 396.550781 "/>
<path style=" stroke:none;fill-rule:evenodd;fill:rgb(93.009949%,11.819458%,13.978577%);fill-opacity:1;" d="M 365.46875 285.796875 C 365.832031 293.445313 366.214844 300.996094 366.589844 308.800781 C 364.335938 307.578125 362.390625 306.425781 360.34375 305.441406 C 351.644531 301.222656 342.5 299.398438 332.851563 300.808594 C 323.269531 302.214844 316.367188 307.503906 313.011719 316.453125 C 307.085938 332.257813 306.957031 348.207031 314.425781 363.601563 C 319.464844 374.003906 328.296875 379.542969 339.710938 380.96875 C 352.074219 382.519531 363.472656 379.125 374.507813 374.019531 C 376.714844 373 378.859375 371.894531 381.441406 370.632813 C 380.804688 372.515625 380.304688 374.074219 379.773438 375.632813 C 377.773438 381.515625 375.730469 387.398438 373.773438 393.296875 C 373.402344 394.421875 372.832031 395.105469 371.660156 395.269531 C 364.230469 396.367188 356.8125 397.691406 349.339844 398.488281 C 340.894531 399.386719 332.460938 398.839844 324.039063 397.789063 C 301.039063 394.921875 280.621094 375.902344 276.300781 353.144531 C 272.839844 334.839844 276.5 318.199219 288.296875 303.644531 C 295.683594 294.519531 305.699219 289.496094 316.800781 286.472656 C 327.425781 283.578125 338.207031 282.914063 349.144531 284.269531 C 354.082031 284.890625 359.078125 285.164063 364.035156 285.601563 C 364.480469 285.636719 364.921875 285.722656 365.46875 285.796875 "/>
<path style=" stroke:none;fill-rule:evenodd;fill:rgb(93.009949%,11.819458%,13.978577%);fill-opacity:1;" d="M 257.289063 285.660156 C 257.445313 286 257.5625 286.171875 257.578125 286.355469 C 257.9375 293.746094 258.265625 301.140625 258.640625 308.914063 C 257.789063 308.40625 257.21875 308.050781 256.632813 307.695313 C 247.46875 302.234375 237.582031 299.578125 226.925781 300.519531 C 216.035156 301.480469 208.566406 307.285156 204.566406 317.445313 C 201.390625 325.519531 200.726563 334 201.125 342.578125 C 201.40625 349.101563 202.589844 355.46875 205.335938 361.449219 C 211.265625 374.398438 221.597656 380.742188 235.609375 381.316406 C 248.242188 381.820313 259.6875 377.621094 270.734375 371.988281 C 271.527344 371.574219 272.332031 371.183594 273.550781 370.570313 C 272.179688 374.609375 270.960938 378.242188 269.730469 381.867188 C 268.4375 385.648438 267.101563 389.410156 265.886719 393.214844 C 265.492188 394.417969 264.839844 395.03125 263.625 395.320313 C 251.039063 398.320313 238.304688 399.3125 225.386719 398.660156 C 216.464844 398.21875 207.726563 396.855469 199.710938 392.8125 C 181.152344 383.46875 170.066406 368.59375 167.578125 347.804688 C 165.609375 331.316406 169.863281 316.453125 180.414063 303.5625 C 187.847656 294.484375 197.859375 289.476563 208.949219 286.445313 C 219.574219 283.542969 230.371094 282.941406 241.316406 284.285156 C 246.636719 284.929688 252.003906 285.21875 257.289063 285.660156 "/>
<path style=" stroke:none;fill-rule:evenodd;fill:rgb(13.505554%,43.82782%,23.103333%);fill-opacity:1;" d="M 85.90625 437.289063 L 80.949219 437.289063 L 80.949219 426.351563 C 80.832031 426.332031 80.699219 426.3125 80.574219 426.285156 C 79.191406 430.046875 77.808594 433.816406 76.203125 438.171875 C 74.628906 433.824219 73.246094 430.015625 71.863281 426.203125 L 71.640625 426.269531 C 71.640625 429.234375 71.53125 432.199219 71.683594 435.160156 C 71.769531 436.996094 71.160156 437.671875 69.347656 437.445313 C 68.460938 437.339844 67.554688 437.425781 66.480469 437.425781 L 66.480469 412.578125 C 67.925781 412.578125 69.414063 412.453125 70.863281 412.652344 C 71.351563 412.714844 71.910156 413.519531 72.125 414.105469 C 73.351563 417.496094 74.492188 420.910156 75.679688 424.316406 C 75.8125 424.714844 76.019531 425.09375 76.273438 425.605469 C 77.582031 421.832031 78.921875 418.285156 80.023438 414.664063 C 80.542969 412.945313 81.40625 412.328125 83.101563 412.546875 C 83.984375 412.660156 84.90625 412.5625 85.90625 412.5625 "/>
<path style=" stroke:none;fill-rule:evenodd;fill:rgb(13.505554%,43.82782%,23.103333%);fill-opacity:1;" d="M 441.101563 421.835938 L 446.179688 421.835938 C 446.179688 419.40625 446.269531 417 446.132813 414.609375 C 446.054688 412.929688 446.683594 412.484375 448.277344 412.535156 C 452.816406 412.683594 452.097656 411.96875 452.117188 416.410156 C 452.160156 422.710938 452.085938 429.007813 452.160156 435.308594 C 452.179688 436.886719 451.804688 437.523438 450.097656 437.460938 C 445.441406 437.289063 446.257813 438.058594 446.179688 433.460938 C 446.148438 431.378906 446.179688 429.289063 446.179688 427.0625 L 441.101563 427.0625 C 441.101563 429.894531 441.003906 432.640625 441.132813 435.371094 C 441.222656 437.03125 440.625 437.511719 439.011719 437.460938 C 434.457031 437.308594 435.175781 438.027344 435.160156 433.601563 C 435.113281 427.300781 435.179688 421 435.113281 414.699219 C 435.097656 413.136719 435.445313 412.464844 437.164063 412.53125 C 441.84375 412.710938 441.019531 411.949219 441.097656 416.519531 C 441.128906 418.21875 441.101563 419.914063 441.101563 421.835938 "/>
<path style=" stroke:none;fill-rule:evenodd;fill:rgb(13.505554%,43.82782%,23.103333%);fill-opacity:1;" d="M 33.648438 427.089844 C 30.695313 430.347656 32.71875 434.011719 31.726563 437.289063 L 26.285156 437.289063 L 26.285156 412.703125 L 31.949219 412.703125 L 31.949219 420.570313 C 32.101563 420.609375 32.246094 420.65625 32.382813 420.703125 C 33.46875 418.667969 34.675781 416.683594 35.589844 414.582031 C 36.3125 412.941406 37.332031 412.339844 39.089844 412.535156 C 40.300781 412.679688 41.554688 412.566406 43.296875 412.566406 C 41.933594 414.910156 40.890625 417 39.570313 418.863281 C 38.199219 420.777344 38.140625 422.507813 39.039063 424.660156 C 40.726563 428.703125 42.105469 432.871094 43.753906 437.394531 C 41.609375 437.394531 39.695313 437.472656 37.785156 437.328125 C 37.40625 437.289063 36.964844 436.433594 36.746094 435.875 C 35.714844 433.074219 34.753906 430.242188 33.648438 427.089844 "/>
<path style=" stroke:none;fill-rule:evenodd;fill:rgb(13.505554%,43.82782%,23.103333%);fill-opacity:1;" d="M 481.480469 420.167969 C 481.480469 423.457031 481.480469 423.457031 483.269531 423.457031 C 485.476563 423.457031 486.253906 422.632813 486.253906 420.320313 C 486.253906 417.976563 485.390625 417.15625 483.054688 417.160156 C 480.359375 417.164063 481.988281 419.277344 481.480469 420.167969 M 492.308594 437.164063 C 491.910156 437.3125 491.785156 437.382813 491.664063 437.394531 C 486.289063 437.765625 486.289063 437.765625 484.722656 432.671875 C 484.3125 431.363281 483.992188 430.027344 483.464844 428.753906 C 483.300781 428.347656 482.65625 428.148438 482.230469 427.851563 C 481.984375 428.253906 481.53125 428.648438 481.527344 429.054688 C 481.464844 431.738281 481.484375 434.414063 481.484375 437.265625 L 476.027344 437.265625 L 476.027344 412.367188 C 479.941406 412.613281 483.875 412.394531 487.574219 413.199219 C 492.394531 414.242188 493.808594 422.027344 490 425.675781 C 488.957031 426.679688 488.992188 427.417969 489.390625 428.546875 C 490.386719 431.371094 491.3125 434.21875 492.308594 437.164063 "/>
<path style=" stroke:none;fill-rule:evenodd;fill:rgb(13.505554%,43.82782%,23.103333%);fill-opacity:1;" d="M 396.808594 412.695313 L 402.644531 412.695313 L 402.644531 423.964844 C 402.644531 425.734375 402.597656 427.5 402.648438 429.269531 C 402.703125 431.507813 403.703125 432.769531 405.289063 432.75 C 406.804688 432.730469 407.78125 431.558594 407.808594 429.355469 C 407.875 424.570313 407.824219 419.785156 407.824219 415.003906 C 407.828125 414.289063 407.824219 413.578125 407.824219 412.710938 L 413.65625 412.710938 L 413.65625 418.003906 C 413.65625 421.800781 413.71875 425.609375 413.640625 429.402344 C 413.488281 436.457031 406.59375 440.230469 400.433594 436.6875 C 398.257813 435.433594 397.308594 433.40625 396.933594 431.058594 C 396.785156 430.160156 396.824219 429.230469 396.808594 428.3125 C 396.800781 423.148438 396.808594 417.992188 396.808594 412.695313 "/>
<path style=" stroke:none;fill-rule:evenodd;fill:rgb(13.505554%,43.82782%,23.103333%);fill-opacity:1;" d="M 461.003906 424.863281 C 461.238281 426.761719 461.277344 428.757813 461.796875 430.625 C 462.019531 431.480469 463.191406 432.613281 463.96875 432.648438 C 464.710938 432.667969 465.949219 431.53125 466.15625 430.683594 C 467.191406 426.902344 467.207031 423.027344 466.117188 419.253906 C 465.886719 418.472656 464.667969 417.40625 464.011719 417.46875 C 463.1875 417.554688 462.019531 418.539063 461.773438 419.367188 C 461.25 421.085938 461.238281 422.957031 461.003906 424.863281 M 473.257813 425.144531 C 472.546875 427.984375 472.113281 430.84375 471.082031 433.476563 C 469.910156 436.558594 467.160156 437.78125 463.984375 437.792969 C 460.699219 437.8125 458 436.539063 456.714844 433.382813 C 454.417969 427.804688 454.410156 422.105469 456.808594 416.5625 C 458.128906 413.484375 460.777344 412.285156 464.144531 412.324219 C 467.460938 412.367188 470.023438 413.640625 471.191406 416.683594 C 472.191406 419.328125 472.574219 422.210938 473.257813 425.144531 "/>
<path style=" stroke:none;fill-rule:evenodd;fill:rgb(13.505554%,43.82782%,23.103333%);fill-opacity:1;" d="M 384.105469 427.96875 L 387.09375 427.96875 C 386.628906 425.324219 386.179688 422.855469 385.738281 420.394531 C 385.621094 420.40625 385.507813 420.425781 385.394531 420.433594 C 384.976563 422.859375 384.5625 425.292969 384.105469 427.96875 M 376.246094 437.425781 C 377.570313 432.230469 378.8125 427.367188 380.066406 422.519531 C 380.773438 419.800781 381.558594 417.097656 382.183594 414.351563 C 382.457031 413.058594 382.96875 412.515625 384.386719 412.527344 C 388.632813 412.5625 388.621094 412.5 389.679688 416.660156 C 391.253906 422.867188 392.871094 429.0625 394.457031 435.273438 C 394.613281 435.878906 394.703125 436.503906 394.855469 437.296875 L 389.085938 437.296875 C 388.75 435.851563 388.410156 434.410156 388.054688 432.902344 C 387.464844 432.863281 386.96875 432.804688 386.441406 432.796875 C 383.167969 432.761719 383.117188 432.753906 382.550781 435.925781 C 382.335938 437.054688 381.863281 437.503906 380.734375 437.441406 C 379.324219 437.375 377.902344 437.425781 376.246094 437.425781 "/>
<path style=" stroke:none;fill-rule:evenodd;fill:rgb(13.505554%,43.82782%,23.103333%);fill-opacity:1;" d="M 152.804688 427.960938 C 152.375 425.382813 151.972656 423.007813 151.5625 420.625 C 151.40625 420.628906 151.253906 420.640625 151.089844 420.652344 C 150.699219 423.042969 150.296875 425.429688 149.882813 427.960938 Z M 160.757813 437.417969 C 158.925781 437.417969 157.347656 437.492188 155.808594 437.378906 C 155.375 437.34375 154.851563 436.835938 154.625 436.410156 C 154.351563 435.847656 154.25 435.148438 154.203125 434.5 C 154.101563 433.230469 153.554688 432.609375 152.195313 432.777344 C 151.429688 432.871094 150.59375 432.683594 149.851563 432.839844 C 149.402344 432.9375 148.84375 433.390625 148.667969 433.820313 C 148.238281 434.941406 148.207031 436.972656 147.589844 437.144531 C 145.925781 437.617188 144.039063 437.3125 142.019531 437.3125 C 143.78125 430.457031 145.480469 423.816406 147.195313 417.175781 C 147.222656 417.050781 147.269531 416.933594 147.3125 416.804688 C 148.503906 412.304688 148.515625 412.273438 153.09375 412.613281 C 153.667969 412.664063 154.542969 413.3125 154.671875 413.828125 C 156.726563 421.550781 158.679688 429.285156 160.757813 437.417969 "/>
<path style=" stroke:none;fill-rule:evenodd;fill:rgb(13.505554%,43.82782%,23.103333%);fill-opacity:1;" d="M 199.800781 420.429688 L 199.425781 420.425781 C 199.003906 422.890625 198.589844 425.359375 198.148438 427.910156 L 201.109375 427.910156 C 200.660156 425.265625 200.21875 422.851563 199.800781 420.429688 M 202.125 432.894531 L 197.316406 432.894531 C 197.195313 433.105469 197.105469 433.203125 197.074219 433.316406 C 196.652344 434.652344 196.589844 436.804688 195.757813 437.152344 C 194.277344 437.789063 192.339844 437.332031 190.285156 437.332031 C 191.125 434.109375 191.898438 431.101563 192.679688 428.089844 C 193.890625 423.40625 195.140625 418.734375 196.285156 414.039063 C 196.554688 412.9375 197.023438 412.570313 198.148438 412.535156 C 202.621094 412.425781 202.589844 412.394531 203.734375 416.800781 C 205.335938 423.058594 206.957031 429.320313 208.566406 435.589844 C 208.6875 436.085938 208.753906 436.582031 208.910156 437.414063 C 207.113281 437.414063 205.507813 437.488281 203.910156 437.363281 C 203.523438 437.332031 203 436.714844 202.84375 436.269531 C 202.511719 435.222656 202.367188 434.105469 202.125 432.894531 "/>
<path style=" stroke:none;fill-rule:evenodd;fill:rgb(13.505554%,43.82782%,23.103333%);fill-opacity:1;" d="M 113.246094 427.921875 L 116.179688 427.921875 C 115.738281 425.335938 115.300781 422.964844 114.890625 420.585938 C 114.753906 420.605469 114.59375 420.625 114.449219 420.640625 C 114.066406 423.003906 113.660156 425.375 113.246094 427.921875 M 124.140625 437.410156 C 122.265625 437.410156 120.632813 437.558594 119.042969 437.328125 C 118.542969 437.25 118.109375 436.210938 117.789063 435.539063 C 117.382813 434.683594 117.316406 433.15625 116.792969 432.984375 C 115.523438 432.601563 114.066406 432.765625 112.707031 432.910156 C 112.398438 432.941406 112.0625 433.792969 111.945313 434.3125 C 111.253906 437.421875 111.265625 437.425781 108.148438 437.425781 C 107.308594 437.421875 106.472656 437.425781 105.367188 437.425781 C 106.625 432.480469 107.8125 427.808594 109 423.140625 C 109.765625 420.15625 110.578125 417.1875 111.304688 414.199219 C 111.597656 413.003906 112.136719 412.523438 113.453125 412.53125 C 117.691406 412.546875 117.703125 412.484375 118.765625 416.617188 C 120.53125 423.398438 122.273438 430.1875 124.140625 437.410156 "/>
<path style=" stroke:none;fill-rule:evenodd;fill:rgb(13.505554%,43.82782%,23.103333%);fill-opacity:1;" d="M 55.832031 427.953125 C 55.355469 425.277344 54.921875 422.804688 54.480469 420.328125 C 54.371094 420.332031 54.25 420.335938 54.140625 420.347656 C 53.71875 422.820313 53.292969 425.300781 52.839844 427.953125 Z M 63.570313 437.296875 L 57.816406 437.296875 C 57.476563 435.847656 57.136719 434.402344 56.78125 432.902344 C 56.1875 432.867188 55.667969 432.804688 55.15625 432.796875 C 51.910156 432.761719 51.890625 432.761719 51.265625 435.953125 C 51.078125 436.921875 50.742188 437.492188 49.632813 437.4375 C 48.199219 437.378906 46.765625 437.425781 44.976563 437.425781 C 45.558594 435.199219 46.066406 433.21875 46.574219 431.226563 C 48.054688 425.535156 49.546875 419.84375 50.96875 414.136719 C 51.246094 412.980469 51.710938 412.546875 52.933594 412.535156 C 57.296875 412.492188 57.308594 412.441406 58.40625 416.667969 C 60.011719 422.871094 61.605469 429.074219 63.183594 435.277344 C 63.339844 435.882813 63.425781 436.515625 63.570313 437.296875 "/>
<path style=" stroke:none;fill-rule:evenodd;fill:rgb(13.505554%,43.82782%,23.103333%);fill-opacity:1;" d="M 264.011719 420.429688 C 263.882813 420.433594 263.765625 420.445313 263.625 420.445313 C 263.210938 422.910156 262.792969 425.367188 262.332031 428.089844 C 263.476563 428.039063 264.324219 427.996094 265.332031 427.949219 C 264.863281 425.261719 264.433594 422.84375 264.011719 420.429688 M 273.082031 437.414063 C 271.273438 437.414063 269.65625 437.488281 268.046875 437.359375 C 267.671875 437.328125 267.199219 436.660156 267.039063 436.199219 C 266.714844 435.148438 266.5625 434.050781 266.320313 432.894531 L 261.613281 432.894531 C 261.488281 433.042969 261.363281 433.121094 261.316406 433.222656 C 260.089844 437.996094 260.101563 437.996094 254.769531 437.238281 C 254.769531 436.886719 254.699219 436.503906 254.796875 436.160156 C 256.671875 428.820313 258.609375 421.496094 260.464844 414.148438 C 260.765625 412.964844 261.226563 412.558594 262.429688 412.535156 C 266.875 412.472656 266.855469 412.4375 267.917969 416.664063 C 269.53125 423 271.164063 429.320313 272.78125 435.65625 C 272.917969 436.148438 272.949219 436.652344 273.082031 437.414063 "/>
<path style=" stroke:none;fill-rule:evenodd;fill:rgb(13.505554%,43.82782%,23.103333%);fill-opacity:1;" d="M 217.476563 424.066406 C 219.015625 423.476563 220.796875 423.339844 221.207031 422.515625 C 221.785156 421.371094 221.738281 419.476563 221.152344 418.359375 C 220.722656 417.570313 218.90625 417.53125 217.476563 417.089844 Z M 211.78125 412.820313 C 215.292969 412.820313 218.582031 412.695313 221.847656 412.863281 C 224.78125 413.011719 226.84375 415.011719 227.304688 417.910156 C 227.503906 419.128906 227.617188 420.398438 227.457031 421.613281 C 226.917969 426.125 224.613281 428.183594 220.074219 428.359375 C 219.277344 428.390625 218.496094 428.363281 217.375 428.363281 C 217.375 430.6875 217.253906 432.902344 217.417969 435.09375 C 217.566406 437.054688 216.816406 437.667969 214.964844 437.449219 C 213.941406 437.328125 212.894531 437.425781 211.78125 437.425781 "/>
<path style=" stroke:none;fill-rule:evenodd;fill:rgb(13.505554%,43.82782%,23.103333%);fill-opacity:1;" d="M 95.472656 417.617188 C 95.472656 419 95.574219 420.304688 95.457031 421.589844 C 95.292969 423.300781 96.054688 423.738281 97.609375 423.617188 C 99.027344 423.496094 99.730469 422.828125 99.90625 421.449219 C 100.351563 418.089844 99.382813 417.160156 95.472656 417.617188 M 90 412.84375 C 93.585938 412.84375 96.933594 412.683594 100.25 412.894531 C 102.8125 413.0625 104.824219 414.550781 105.257813 417.144531 C 105.628906 419.222656 105.707031 421.472656 105.269531 423.519531 C 104.601563 426.695313 102.121094 428.195313 98.289063 428.359375 C 97.460938 428.402344 96.621094 428.363281 95.523438 428.363281 L 95.523438 437.285156 L 90 437.285156 "/>
<path style=" stroke:none;fill-rule:evenodd;fill:rgb(13.505554%,43.82782%,23.103333%);fill-opacity:1;" d="M 317.445313 419.910156 C 315.496094 420.433594 313.742188 420.90625 311.960938 421.390625 C 311.699219 420.398438 311.589844 419.441406 311.179688 418.660156 C 310.886719 418.101563 310.171875 417.425781 309.652344 417.425781 C 309.003906 417.417969 308.191406 417.929688 307.765625 418.472656 C 307.328125 419.050781 307.054688 419.925781 307.050781 420.679688 C 307.019531 423.753906 307.039063 426.828125 307.203125 429.894531 C 307.273438 431.226563 307.796875 432.625 309.425781 432.734375 C 311.125 432.847656 311.449219 431.402344 311.820313 430.105469 C 311.914063 429.738281 312.097656 429.386719 312.328125 428.824219 C 314.097656 429.417969 315.792969 429.996094 317.464844 430.5625 C 316.179688 436.351563 312.832031 438.613281 307.457031 437.554688 C 304.589844 436.988281 302.828125 435.140625 301.949219 432.503906 C 300.328125 427.703125 300.226563 422.820313 301.859375 418.015625 C 303.773438 412.355469 307.835938 411.707031 312.144531 412.609375 C 315.757813 413.359375 316.785156 416.457031 317.445313 419.910156 "/>
<path style=" stroke:none;fill-rule:evenodd;fill:rgb(13.505554%,43.82782%,23.103333%);fill-opacity:1;" d="M 183.339844 428.796875 C 185.160156 429.417969 186.757813 429.964844 188.328125 430.496094 C 188.203125 434.136719 185.894531 436.957031 182.617188 437.570313 C 178.128906 438.398438 174.679688 436.726563 173.136719 432.859375 C 171.636719 429.101563 171.648438 425.167969 172.140625 421.230469 C 172.320313 419.816406 172.695313 418.394531 173.265625 417.085938 C 174.820313 413.4375 177.558594 412.035156 182.054688 412.394531 C 185.144531 412.640625 187.125 414.574219 188.171875 418.171875 C 188.542969 419.453125 188.328125 420.117188 186.914063 420.363281 C 185.648438 420.578125 184.410156 421.015625 183.082031 421.378906 C 182.804688 420.449219 182.738281 419.542969 182.3125 418.859375 C 181.910156 418.226563 181.089844 417.371094 180.558594 417.433594 C 179.839844 417.523438 178.773438 418.296875 178.621094 418.960938 C 178.160156 420.976563 177.898438 423.085938 177.851563 425.160156 C 177.800781 426.914063 177.960938 428.734375 178.453125 430.402344 C 178.730469 431.324219 179.886719 431.988281 180.636719 432.785156 C 181.355469 432.035156 182.121094 431.332031 182.769531 430.527344 C 183.066406 430.152344 183.097656 429.566406 183.339844 428.796875 "/>
<path style=" stroke:none;fill-rule:evenodd;fill:rgb(13.729858%,12.159729%,12.548828%);fill-opacity:1;" d="M 251.917969 477.414063 C 256.257813 477.320313 261.742188 473.132813 263.226563 468.925781 C 263.5 468.113281 263.210938 467.09375 263.195313 466.171875 C 262.269531 466.304688 261.164063 466.160156 260.441406 466.609375 C 256.441406 469.152344 253.96875 472.941406 251.917969 477.414063 M 248.125 478.78125 C 251.183594 470.046875 254.683594 461.75 260.246094 454.480469 C 261.0625 453.414063 262.144531 452.390625 263.332031 451.84375 C 264.433594 451.332031 265.832031 451.488281 267.5625 451.308594 C 263.664063 456.6875 260.191406 461.460938 256.734375 466.222656 C 256.859375 466.335938 257 466.445313 257.144531 466.554688 C 258.6875 465.441406 260.167969 464.1875 261.808594 463.253906 C 263.566406 462.261719 265.671875 461.054688 267.464844 462.613281 C 269.199219 464.109375 268.550781 466.398438 267.945313 468.332031 C 265.6875 475.464844 256.757813 480.710938 249.476563 479.265625 C 249.105469 479.191406 248.753906 479.011719 248.125 478.78125 "/>
<path style=" stroke:none;fill-rule:evenodd;fill:rgb(13.505554%,43.82782%,23.103333%);fill-opacity:1;" d="M 365.828125 412.75 C 364.511719 415.800781 363.519531 418.566406 362.15625 421.144531 C 359.8125 425.550781 358.738281 430.152344 359.25 435.121094 C 359.324219 435.761719 359.257813 436.425781 359.257813 437.253906 L 353.484375 437.253906 C 353.484375 434.722656 353.539063 432.1875 353.449219 429.671875 C 353.414063 428.660156 353.21875 427.589844 352.820313 426.65625 C 350.9375 422.128906 348.953125 417.644531 346.867188 412.78125 C 348.996094 412.78125 350.851563 412.699219 352.679688 412.847656 C 353.082031 412.878906 353.558594 413.6875 353.746094 414.226563 C 354.660156 416.8125 355.464844 419.425781 356.386719 422.269531 C 357.304688 419.441406 358.199219 416.867188 358.972656 414.246094 C 359.3125 413.132813 359.851563 412.652344 361.046875 412.726563 C 362.511719 412.820313 364 412.75 365.828125 412.75 "/>
<path style=" stroke:none;fill-rule:evenodd;fill:rgb(13.505554%,43.82782%,23.103333%);fill-opacity:1;" d="M 521.882813 412.761719 C 523.878906 412.761719 525.582031 412.664063 527.242188 412.816406 C 527.757813 412.863281 528.441406 413.542969 528.628906 414.078125 C 529.582031 416.703125 530.398438 419.382813 531.332031 422.265625 C 532.234375 419.46875 533.121094 416.878906 533.910156 414.257813 C 534.238281 413.15625 534.765625 412.648438 535.964844 412.726563 C 537.449219 412.820313 538.957031 412.75 540.769531 412.75 C 539.613281 415.429688 538.71875 417.878906 537.535156 420.195313 C 535.03125 425.054688 533.492188 430.089844 534.171875 435.644531 C 534.238281 436.140625 534.117188 436.65625 534.074219 437.296875 L 528.363281 437.296875 C 528.363281 435.09375 528.523438 433.007813 528.320313 430.941406 C 528.121094 428.972656 527.796875 426.9375 527.09375 425.097656 C 525.765625 421.613281 524.152344 418.238281 522.664063 414.808594 C 522.410156 414.238281 522.214844 413.636719 521.882813 412.761719 "/>
<path style=" stroke:none;fill-rule:evenodd;fill:rgb(13.729858%,12.159729%,12.548828%);fill-opacity:1;" d="M 288.34375 479.972656 C 286.21875 479.289063 285.070313 477.828125 285.398438 475.292969 C 285.726563 472.800781 286.605469 470.371094 287.359375 467.949219 C 287.679688 466.894531 288.296875 465.9375 288.855469 464.726563 C 287.886719 464.597656 287.023438 464.480469 286.175781 464.363281 C 286.082031 464.175781 286.003906 463.996094 285.90625 463.816406 C 286.558594 463.4375 287.257813 462.683594 287.871094 462.75 C 289.667969 462.925781 290.59375 462.074219 291.472656 460.671875 C 292.726563 458.699219 294.269531 456.964844 296.988281 457.324219 C 297.5 457.382813 297.980469 457.613281 298.683594 457.832031 C 297.394531 459.378906 296.207031 460.789063 294.640625 462.648438 C 296.921875 462.648438 298.667969 462.738281 300.378906 462.589844 C 300.878906 462.546875 301.367188 461.859375 301.777344 461.402344 C 302.78125 460.289063 303.601563 458.957031 304.765625 458.046875 C 306.109375 456.972656 307.75 456.957031 309.453125 457.933594 C 308.195313 459.410156 307.039063 460.78125 305.597656 462.476563 C 307.128906 462.605469 308.308594 462.703125 309.515625 462.804688 C 309.441406 464.296875 308.527344 464.695313 307.378906 464.5 C 304.945313 464.089844 303.761719 465.261719 302.773438 467.351563 C 300.894531 471.347656 299.285156 475.386719 299.148438 479.988281 C 297.175781 479.574219 296.285156 478.167969 296.402344 476.601563 C 296.59375 474.042969 297.15625 471.480469 297.792969 468.980469 C 298.148438 467.558594 298.960938 466.253906 299.714844 464.542969 C 297.710938 464.542969 295.964844 464.433594 294.257813 464.605469 C 293.703125 464.660156 293.082031 465.371094 292.777344 465.925781 C 290.335938 470.292969 288.359375 474.816406 288.34375 479.972656 "/>
<path style=" stroke:none;fill-rule:evenodd;fill:rgb(13.729858%,12.159729%,12.548828%);fill-opacity:1;" d="M 367.296875 470.175781 C 367.066406 471.519531 367.082031 472.953125 366.574219 474.167969 C 364.707031 478.636719 358.0625 481.289063 353.539063 479.464844 C 350.761719 478.351563 349.539063 476.144531 349.496094 473.28125 C 349.367188 465.847656 352.957031 460.25 358.554688 455.800781 C 362.351563 452.78125 366.679688 450.9375 371.65625 451.484375 C 372.65625 451.589844 373.871094 452.410156 374.40625 453.265625 C 374.769531 453.867188 374.167969 455.082031 374.03125 455.816406 C 372.320313 454.984375 370.921875 453.699219 369.664063 453.820313 C 367.691406 454.023438 365.492188 454.753906 363.96875 455.976563 C 358.957031 459.988281 356.316406 465.515625 354.972656 471.703125 C 354.773438 472.597656 354.664063 473.519531 354.664063 474.433594 C 354.648438 477.0625 356.246094 478.242188 358.800781 477.550781 C 361.648438 476.785156 363.441406 474.6875 365.097656 472.457031 C 365.671875 471.679688 366.167969 470.84375 366.679688 470.042969 C 366.886719 470.082031 367.097656 470.132813 367.296875 470.175781 "/>
<path style=" stroke:none;fill-rule:evenodd;fill:rgb(13.729858%,12.159729%,12.548828%);fill-opacity:1;" d="M 394.199219 461.175781 C 395.890625 461.933594 396.890625 463.789063 396.175781 466.199219 C 395.570313 468.242188 394.359375 470.09375 393.578125 472.09375 C 393.121094 473.222656 392.984375 474.476563 392.707031 475.671875 C 393.914063 475.191406 395.320313 474.964844 396.28125 474.175781 C 400.078125 470.996094 402.539063 466.820313 404.476563 462.171875 C 406.304688 462.9375 406.855469 464.511719 406.410156 466.007813 C 404.085938 473.714844 401.117188 481.132813 394.957031 486.710938 C 392.640625 488.804688 389.816406 489.84375 386.628906 489.542969 C 384.285156 489.316406 383.425781 487.875 384.324219 485.804688 C 387.703125 488.160156 390.84375 487.871094 393.828125 484.835938 C 396.984375 481.617188 398.472656 477.492188 399.980469 473.402344 C 399.847656 473.289063 399.730469 473.1875 399.59375 473.085938 C 398.558594 474.191406 397.636719 475.445313 396.457031 476.363281 C 395.0625 477.433594 393.554688 478.460938 391.9375 479.066406 C 389.125 480.132813 387.367188 478.621094 387.886719 475.644531 C 388.121094 474.1875 388.75 472.769531 389.378906 471.410156 C 390.929688 467.980469 392.578125 464.585938 394.199219 461.175781 "/>
<path style=" stroke:none;fill-rule:evenodd;fill:rgb(13.505554%,43.82782%,23.103333%);fill-opacity:1;" d="M 504.433594 417.761719 L 504.433594 412.921875 L 520.230469 412.921875 L 520.230469 417.617188 C 518.707031 417.683594 517.097656 417.765625 515.300781 417.851563 L 515.300781 437.292969 L 509.460938 437.292969 L 509.460938 417.761719 "/>
<path style=" stroke:none;fill-rule:evenodd;fill:rgb(13.505554%,43.82782%,23.103333%);fill-opacity:1;" d="M 250.152344 417.734375 L 250.152344 437.289063 L 244.34375 437.289063 L 244.34375 417.746094 L 239.378906 417.746094 L 239.378906 412.75 L 244.414063 412.75 C 247.433594 412.75 250.453125 412.796875 253.46875 412.730469 C 254.683594 412.710938 255.347656 413.027344 255.203125 414.375 C 255.136719 414.953125 255.140625 415.558594 255.1875 416.144531 C 255.300781 417.335938 254.816406 417.824219 253.609375 417.742188 C 252.566406 417.679688 251.515625 417.734375 250.152344 417.734375 "/>
<path style=" stroke:none;fill-rule:evenodd;fill:rgb(13.505554%,43.82782%,23.103333%);fill-opacity:1;" d="M 340.390625 417.898438 L 340.390625 437.238281 L 334.527344 437.238281 L 334.527344 417.734375 L 329.601563 417.734375 L 329.601563 412.910156 L 345.445313 412.910156 C 345.320313 414.453125 345.742188 416.460938 344.933594 417.332031 C 344.183594 418.148438 342.125 417.746094 340.390625 417.898438 "/>
<path style=" stroke:none;fill-rule:evenodd;fill:rgb(13.729858%,12.159729%,12.548828%);fill-opacity:1;" d="M 159.855469 481.144531 C 157.898438 480.640625 156.546875 478.894531 157.160156 476.554688 C 157.957031 473.480469 159.085938 470.472656 160.332031 467.535156 C 161.726563 464.222656 163.410156 461.027344 164.941406 457.773438 C 165.269531 457.085938 165.46875 456.339844 165.925781 455.128906 C 164.394531 455.820313 163.316406 456.308594 162.230469 456.800781 C 162.058594 456.707031 161.882813 456.605469 161.714844 456.523438 C 162.230469 455.542969 162.53125 454.316406 163.304688 453.664063 C 164.316406 452.8125 165.664063 452.203125 166.960938 451.875 C 170.800781 450.898438 174.714844 450.691406 178.664063 451.417969 C 181.164063 451.878906 182.234375 452.648438 182.714844 454.125 C 179.328125 454.125 175.886719 454.140625 172.433594 454.117188 C 171.230469 454.109375 170.59375 454.625 170.164063 455.800781 C 169.066406 458.734375 167.78125 461.605469 166.519531 464.652344 C 170.019531 464.59375 173.804688 462.695313 176.527344 466.339844 C 173.210938 466.605469 170.109375 466.890625 166.992188 467.078125 C 165.609375 467.164063 164.847656 467.847656 164.394531 469.066406 C 162.886719 473.085938 161.378906 477.097656 159.855469 481.144531 "/>
<path style=" stroke:none;fill-rule:evenodd;fill:rgb(13.505554%,43.82782%,23.103333%);fill-opacity:1;" d="M 416.574219 417.617188 L 416.574219 412.921875 L 432.058594 412.921875 L 432.058594 417.699219 L 427.320313 417.699219 L 427.320313 421.992188 C 427.320313 426.453125 427.242188 430.925781 427.363281 435.382813 C 427.394531 437.066406 426.804688 437.605469 425.210938 437.453125 C 424.117188 437.34375 423 437.429688 421.613281 437.429688 L 421.613281 417.882813 C 419.824219 417.789063 418.289063 417.707031 416.574219 417.617188 "/>
<path style=" stroke:none;fill-rule:evenodd;fill:rgb(13.505554%,43.82782%,23.103333%);fill-opacity:1;" d="M 126.71875 412.707031 L 132.5 412.707031 L 132.5 432.253906 L 140.15625 432.253906 L 140.15625 437.246094 L 126.71875 437.246094 "/>
<path style=" stroke:none;fill-rule:evenodd;fill:rgb(13.505554%,43.82782%,23.103333%);fill-opacity:1;" d="M 281.703125 432.261719 C 283.914063 432.261719 285.808594 432.332031 287.714844 432.242188 C 289.128906 432.164063 289.613281 432.734375 289.457031 434.070313 C 289.421875 434.457031 289.40625 434.867188 289.457031 435.242188 C 289.722656 436.964844 289.050781 437.53125 287.300781 437.46875 C 283.578125 437.339844 279.867188 437.425781 276.007813 437.425781 L 276.007813 412.75 L 281.703125 412.75 "/>
<path style=" stroke:none;fill-rule:evenodd;fill:rgb(13.729858%,12.159729%,12.548828%);fill-opacity:1;" d="M 235.457031 464.285156 L 235.183594 463.773438 C 234.445313 463.773438 233.675781 463.640625 232.96875 463.796875 C 228.261719 464.769531 225.550781 467.984375 223.917969 472.230469 C 223.597656 473.078125 223.902344 474.175781 223.90625 475.152344 C 224.859375 474.867188 225.816406 474.609375 226.75 474.28125 C 227.039063 474.175781 227.304688 473.921875 227.519531 473.675781 C 230.164063 470.546875 232.816406 467.414063 235.457031 464.285156 M 239.304688 463.050781 C 236.195313 468.738281 233.585938 474.152344 233.257813 480.632813 C 230.039063 479.3125 230.476563 476.46875 230.125 473.957031 C 228.59375 475.371094 227.265625 476.828125 225.707031 477.941406 C 224.03125 479.15625 222.011719 480.59375 219.96875 479.195313 C 217.847656 477.75 218.476563 475.308594 219.023438 473.234375 C 220.996094 465.929688 228.675781 460.871094 236 462.03125 C 237.058594 462.195313 238.074219 462.660156 239.304688 463.050781 "/>
<path style=" stroke:none;fill-rule:evenodd;fill:rgb(13.505554%,43.82782%,23.103333%);fill-opacity:1;" d="M 326.484375 425.023438 C 326.484375 428.566406 326.433594 432.113281 326.507813 435.652344 C 326.53125 437.023438 326.09375 437.488281 324.710938 437.457031 C 319.652344 437.316406 320.589844 438.078125 320.539063 433.328125 C 320.480469 427.03125 320.558594 420.742188 320.496094 414.445313 C 320.480469 412.980469 320.9375 412.496094 322.402344 412.539063 C 327.289063 412.679688 326.390625 411.945313 326.480469 416.570313 C 326.527344 419.390625 326.484375 422.207031 326.484375 425.023438 "/>
<path style=" stroke:none;fill-rule:evenodd;fill:rgb(13.505554%,43.82782%,23.103333%);fill-opacity:1;" d="M 236.277344 424.992188 C 236.277344 428.601563 236.246094 432.207031 236.292969 435.816406 C 236.304688 436.972656 235.960938 437.46875 234.726563 437.445313 C 229.304688 437.328125 230.386719 438.113281 230.34375 433.167969 C 230.273438 426.929688 230.355469 420.699219 230.289063 414.472656 C 230.28125 413.046875 230.648438 412.492188 232.167969 412.535156 C 237.097656 412.6875 236.195313 411.945313 236.273438 416.535156 C 236.308594 419.351563 236.277344 422.175781 236.277344 424.992188 "/>
<path style=" stroke:none;fill-rule:evenodd;fill:rgb(13.505554%,43.82782%,23.103333%);fill-opacity:1;" d="M 501.386719 437.414063 C 499.746094 437.414063 498.171875 437.503906 496.636719 437.359375 C 496.261719 437.316406 495.640625 436.542969 495.640625 436.109375 C 495.59375 428.699219 495.59375 421.289063 495.640625 413.882813 C 495.648438 413.445313 496.261719 412.667969 496.636719 412.636719 C 498.171875 412.492188 499.746094 412.578125 501.386719 412.578125 "/>
<path style=" stroke:none;fill-rule:evenodd;fill:rgb(13.729858%,12.159729%,12.548828%);fill-opacity:1;" d="M 179.972656 474.550781 C 179.820313 475.917969 180.414063 476.753906 181.835938 476.582031 C 182.785156 476.472656 183.8125 476.214844 184.585938 475.695313 C 187.875 473.445313 189.832031 470.25 190.527344 466.332031 C 190.863281 464.347656 189.941406 463.644531 188 464.285156 C 184.410156 465.46875 180.277344 470.75 179.972656 474.550781 M 188.449219 461.992188 C 191.355469 461.976563 192.726563 463.414063 192.238281 466.328125 C 191.34375 471.648438 188.632813 475.859375 183.898438 478.527344 C 182.636719 479.238281 181.074219 479.605469 179.609375 479.71875 C 176.5625 479.957031 175.140625 478.476563 175.117188 475.417969 C 175.050781 469.019531 182 462.023438 188.449219 461.992188 "/>
<path style=" stroke:none;fill-rule:evenodd;fill:rgb(13.729858%,12.159729%,12.548828%);fill-opacity:1;" d="M 311.914063 469.761719 C 315.070313 469.492188 317.53125 468.738281 319.328125 466.625 C 319.800781 466.0625 319.800781 465.101563 320.019531 464.328125 C 319.238281 464.3125 318.347656 464.050781 317.679688 464.320313 C 315.25 465.3125 313.574219 467.214844 311.914063 469.761719 M 318.335938 473.71875 C 317.878906 474.6875 317.632813 475.855469 316.929688 476.589844 C 314.378906 479.214844 311.128906 480.105469 307.582031 479.648438 C 305.753906 479.414063 304.578125 478.191406 304.664063 476.273438 C 304.726563 474.925781 304.902344 473.464844 305.488281 472.285156 C 308.191406 466.859375 312.535156 463.402344 318.511719 462.226563 C 319.453125 462.046875 320.957031 462.382813 321.457031 463.039063 C 321.976563 463.722656 321.882813 465.238281 321.488281 466.125 C 320.964844 467.246094 320.035156 468.402344 318.976563 468.996094 C 317.171875 470.007813 315.171875 471.011719 313.1875 471.222656 C 310.601563 471.5 309.949219 473.050781 309.488281 475.027344 C 308.988281 477.082031 310.042969 478.203125 312.027344 477.546875 C 313.351563 477.105469 314.558594 476.246094 315.742188 475.464844 C 316.535156 474.933594 317.191406 474.207031 317.917969 473.5625 C 318.054688 473.617188 318.195313 473.667969 318.335938 473.71875 "/>
<path style=" stroke:none;fill-rule:evenodd;fill:rgb(13.729858%,12.159729%,12.548828%);fill-opacity:1;" d="M 274.867188 469.722656 C 277.976563 469.515625 280.4375 468.714844 282.242188 466.550781 C 282.703125 466 282.667969 465.042969 282.871094 464.261719 C 282.128906 464.25 281.300781 464.015625 280.675781 464.277344 C 278.203125 465.277344 276.476563 467.175781 274.867188 469.722656 M 281.367188 473.804688 C 280.707031 474.902344 280.253906 476.226563 279.347656 477.058594 C 276.953125 479.238281 273.984375 480.011719 270.789063 479.710938 C 268.675781 479.519531 267.449219 478.167969 267.578125 476.019531 C 267.660156 474.679688 267.882813 473.230469 268.492188 472.050781 C 271.144531 466.882813 275.34375 463.5625 281.054688 462.25 C 282.335938 461.953125 284.003906 461.6875 284.484375 463.175781 C 284.839844 464.300781 284.589844 465.984375 283.9375 466.988281 C 282.058594 469.886719 278.886719 470.773438 275.699219 471.40625 C 273.566406 471.828125 271.84375 474.246094 272.285156 476.375 C 272.578125 477.75 273.765625 478.117188 274.703125 477.609375 C 276.597656 476.558594 278.316406 475.167969 280.105469 473.914063 C 280.296875 473.773438 280.464844 473.574219 280.65625 473.402344 C 280.890625 473.539063 281.121094 473.667969 281.367188 473.804688 "/>
<path style=" stroke:none;fill-rule:evenodd;fill:rgb(13.729858%,12.159729%,12.548828%);fill-opacity:1;" d="M 322.464844 479.960938 C 320.609375 478.988281 319.917969 477.53125 320.539063 475.449219 C 321.015625 473.828125 321.761719 472.273438 322.484375 470.742188 C 323.878906 467.792969 325.34375 464.875 326.808594 461.894531 C 329.203125 462.429688 329.476563 463.3125 328.359375 467.746094 C 328.542969 467.929688 328.726563 468.109375 328.894531 468.285156 C 330.007813 466.953125 331.101563 465.605469 332.234375 464.28125 C 332.4375 464.03125 332.722656 463.84375 332.988281 463.644531 C 335.160156 461.941406 336.574219 461.652344 337.496094 462.707031 C 338.558594 463.941406 338.078125 466.25 336.414063 467.960938 C 334.328125 466.40625 333.34375 466.339844 331.160156 467.933594 C 327.007813 470.957031 324.238281 475.023438 322.464844 479.960938 "/>
<path style=" stroke:none;fill-rule:evenodd;fill:rgb(13.729858%,12.159729%,12.548828%);fill-opacity:1;" d="M 381.734375 480.125 C 379.433594 479.386719 378.574219 477.628906 378.847656 475.804688 C 379.230469 473.003906 380.152344 470.265625 380.949219 467.527344 C 381.210938 466.605469 381.75 465.761719 382.234375 464.722656 C 381.230469 464.578125 380.371094 464.460938 379.496094 464.339844 C 379.519531 462.726563 380.585938 462.582031 381.671875 462.691406 C 383.019531 462.832031 383.804688 462.269531 384.535156 461.167969 C 385.332031 459.988281 386.273438 458.824219 387.398438 457.972656 C 388.785156 456.929688 390.398438 457 392.046875 457.921875 C 390.753906 459.414063 389.582031 460.78125 388.078125 462.527344 C 389.648438 462.632813 390.769531 462.695313 391.964844 462.773438 C 392.023438 464.382813 391.015625 464.675781 389.933594 464.492188 C 387.480469 464.058594 386.273438 465.253906 385.316406 467.328125 C 383.472656 471.328125 381.734375 475.335938 381.734375 480.125 "/>
<path style=" stroke:none;fill-rule:evenodd;fill:rgb(13.729858%,12.159729%,12.548828%);fill-opacity:1;" d="M 193.605469 480.011719 C 191.644531 478.929688 191.050781 477.351563 191.789063 475.046875 C 192.339844 473.441406 193.121094 471.914063 193.859375 470.375 C 194.527344 468.964844 195.324219 467.601563 195.984375 466.171875 C 196.621094 464.753906 197.171875 463.277344 197.746094 461.820313 C 200.371094 462.421875 200.660156 463.308594 199.554688 467.730469 C 199.695313 467.878906 199.855469 468.035156 200.007813 468.195313 C 201.125 466.886719 202.242188 465.585938 203.375 464.292969 C 203.542969 464.09375 203.757813 463.945313 203.976563 463.785156 C 206.230469 461.96875 207.691406 461.632813 208.632813 462.695313 C 209.632813 463.8125 209.234375 466.074219 207.628906 467.992188 C 205.199219 465.613281 203.136719 467.171875 201.199219 468.800781 C 197.664063 471.765625 195.203125 475.519531 193.605469 480.011719 "/>
<path style=" stroke:none;fill-rule:evenodd;fill:rgb(13.729858%,12.159729%,12.548828%);fill-opacity:1;" d="M 370.835938 480.925781 C 368.542969 479.570313 367.738281 477.4375 368.597656 474.625 C 369.1875 472.699219 370.121094 470.871094 371.011719 469.046875 C 371.90625 467.230469 372.9375 465.46875 373.960938 463.714844 C 374.257813 463.222656 374.984375 462.433594 375.164063 462.507813 C 375.878906 462.832031 376.769531 463.34375 376.980469 463.996094 C 377.273438 464.84375 377.179688 465.941406 376.910156 466.828125 C 376.617188 467.804688 375.988281 468.707031 375.429688 469.585938 C 373.214844 473.015625 371.125 476.496094 370.835938 480.925781 "/>
<path style=" stroke:none;fill-rule:evenodd;fill:rgb(13.729858%,12.159729%,12.548828%);fill-opacity:1;" d="M 377.140625 457.269531 C 377.367188 455.292969 378.003906 454.257813 379.492188 454.222656 C 380.839844 454.1875 381.503906 455.023438 381.476563 456.355469 C 381.445313 457.730469 380.691406 458.742188 379.367188 458.632813 C 378.507813 458.566406 377.726563 457.65625 377.140625 457.269531 "/>
<path style=" stroke:none;fill-rule:evenodd;fill:rgb(13.505554%,43.82782%,23.103333%);fill-opacity:1;" d="M 416.074219 273.542969 C 392.734375 255.671875 366.257813 244.785156 337.753906 238.449219 C 332.777344 237.339844 327.695313 236.652344 322.664063 235.710938 L 311.707031 234.5625 C 254.363281 230.179688 200.644531 242.039063 150.113281 268.824219 C 152.253906 268.613281 154.3125 267.996094 156.394531 267.542969 C 173.359375 263.855469 190.300781 260.085938 207.296875 256.558594 C 223.335938 253.238281 239.523438 250.578125 255.84375 249.09375 C 270.695313 247.75 285.5625 246.894531 300.46875 247.78125 C 310.792969 248.394531 321.164063 249.023438 331.375 250.582031 C 343.476563 252.4375 355.464844 255.054688 367.402344 257.769531 C 384.226563 261.589844 400.730469 266.484375 416.253906 274.230469 C 416.410156 274.308594 416.605469 274.316406 417.222656 274.441406 C 416.582031 273.945313 416.339844 273.738281 416.074219 273.542969 "/>
<path style=" stroke:none;fill-rule:evenodd;fill:rgb(13.729858%,12.159729%,12.548828%);fill-opacity:1;" d="M 311.707031 234.566406 L 311.707031 229.082031 C 311.085938 229 310.523438 228.929688 309.929688 228.851563 C 309.851563 228.664063 309.742188 228.5 309.726563 228.320313 C 309.558594 226.996094 309.300781 225.660156 309.316406 224.324219 C 309.328125 223.84375 309.898438 223.152344 310.371094 222.933594 C 311.050781 222.625 311.882813 222.679688 312.570313 222.585938 L 312.570313 216.835938 C 311.714844 216.777344 311.066406 216.730469 310.246094 216.675781 L 310.246094 210.304688 C 311.066406 210.230469 311.953125 210.15625 312.976563 210.058594 L 312.976563 203.9375 C 311.929688 203.847656 310.992188 203.761719 309.929688 203.667969 L 309.929688 198.015625 C 310.855469 197.945313 311.734375 197.882813 312.757813 197.800781 L 312.757813 192.285156 C 311.914063 192.167969 311.152344 192.066406 310.238281 191.945313 L 310.238281 185.398438 C 313.515625 184.664063 313.558594 184.578125 312.742188 179.789063 C 311.953125 179.675781 311.128906 179.558594 310.175781 179.414063 L 310.175781 173.285156 C 311.003906 173.183594 311.867188 173.078125 312.777344 172.964844 L 312.777344 166.273438 L 310.09375 166.273438 L 310.09375 136.132813 C 310.792969 136.035156 311.734375 135.894531 312.714844 135.757813 L 312.714844 129.824219 C 311.179688 129.777344 310.972656 128.910156 310.960938 127.617188 C 310.949219 119.21875 310.832031 110.824219 310.765625 102.421875 C 310.699219 93.761719 310.660156 85.101563 310.605469 76.441406 C 310.605469 76.011719 310.695313 75.582031 310.746094 74.820313 C 311.328125 75.429688 311.6875 75.769531 311.992188 76.160156 C 315.949219 81.226563 319.910156 86.296875 323.851563 91.378906 C 325.5625 93.578125 324.992188 95.378906 322.308594 96.101563 C 322.222656 97.167969 322.078125 98.273438 322.078125 99.371094 C 322.039063 113.222656 322.023438 127.070313 321.988281 140.917969 C 321.976563 141.953125 322.003906 142.824219 323.203125 143.285156 C 323.601563 143.4375 323.992188 144.132813 324.039063 144.621094 C 324.238281 146.636719 324.3125 148.664063 324.433594 150.859375 C 321.746094 150.976563 321.960938 152.742188 321.992188 154.578125 C 322.078125 162 322.109375 169.417969 322.078125 176.832031 C 322.078125 178.152344 322.46875 178.992188 323.585938 179.757813 C 324.191406 180.171875 324.609375 181.152344 324.726563 181.9375 C 324.890625 183.089844 324.839844 184.3125 324.640625 185.464844 C 324.523438 186.132813 323.769531 186.660156 323.527344 187.339844 C 323.097656 188.613281 322.835938 189.933594 322.46875 191.359375 C 323.421875 191.542969 323.976563 191.652344 324.726563 191.796875 C 324.726563 193.976563 324.835938 196.140625 324.664063 198.28125 C 324.609375 198.863281 323.703125 199.375 322.824219 199.710938 C 322.824219 200.875 322.804688 202.046875 322.851563 203.207031 C 322.859375 203.585938 322.988281 204.25 323.175781 204.285156 C 325.757813 204.78125 324.582031 206.769531 324.714844 208.179688 C 324.820313 209.152344 324.714844 210.152344 324.648438 211.132813 C 324.617188 211.492188 324.5 212.09375 324.285156 212.164063 C 321.957031 212.914063 323.632813 214.71875 323.246094 215.964844 C 323.214844 216.058594 323.304688 216.261719 323.378906 216.304688 C 326.871094 218.125 324.386719 221.203125 325.3125 223.753906 L 321.945313 223.753906 C 321.132813 227.070313 321.222656 227.523438 324.082031 228.835938 C 325.621094 229.53125 325.542969 230.632813 325.527344 231.890625 C 325.519531 232.730469 325.527344 233.5625 325.527344 234.574219 C 324.480469 234.511719 323.707031 234.40625 322.949219 234.445313 C 322.371094 234.46875 321.828125 234.671875 321.277344 234.792969 C 321.738281 235.113281 322.160156 235.617188 322.664063 235.710938 "/>
<path style=" stroke:none;fill-rule:evenodd;fill:rgb(13.729858%,12.159729%,12.548828%);fill-opacity:1;" d="M 254.207031 138.902344 C 270.914063 138.175781 287.382813 137.453125 303.832031 136.734375 L 303.832031 167.085938 C 287.1875 167.929688 270.789063 168.765625 254.207031 169.605469 "/>
<path style=" stroke:none;fill-rule:evenodd;fill:rgb(13.729858%,12.159729%,12.548828%);fill-opacity:1;" d="M 279.300781 127.859375 C 290.972656 127.867188 300.3125 118.789063 300.375 107.410156 C 300.40625 96.054688 291.035156 86.78125 279.46875 86.757813 C 267.882813 86.738281 258.460938 95.894531 258.410156 107.242188 C 258.363281 118.613281 267.71875 127.84375 279.300781 127.859375 M 254.566406 131.902344 L 254.566406 84.320313 C 270.960938 83.265625 287.082031 82.226563 303.464844 81.167969 L 303.464844 129.652344 C 287.1875 130.394531 270.859375 131.148438 254.566406 131.902344 "/>
<path style=" stroke:none;fill-rule:evenodd;fill:rgb(13.729858%,12.159729%,12.548828%);fill-opacity:1;" d="M 253.042969 230.5 L 253.042969 224.695313 C 269.855469 224.210938 286.640625 223.726563 303.578125 223.230469 L 303.578125 229.613281 C 286.78125 229.910156 270.011719 230.207031 253.042969 230.5 "/>
<path style=" stroke:none;fill-rule:evenodd;fill:rgb(13.729858%,12.159729%,12.548828%);fill-opacity:1;" d="M 253.996094 180.492188 C 253.871094 180.183594 253.832031 180.121094 253.832031 180.066406 C 253.414063 174.867188 253.414063 174.8125 258.472656 174.679688 C 271.910156 174.328125 285.347656 174.015625 298.78125 173.703125 C 300.347656 173.667969 301.910156 173.695313 303.660156 173.695313 L 303.660156 179.664063 C 287.144531 179.941406 270.59375 180.214844 253.996094 180.492188 "/>
<path style=" stroke:none;fill-rule:evenodd;fill:rgb(13.729858%,12.159729%,12.548828%);fill-opacity:1;" d="M 303.871094 210.890625 L 303.871094 216.710938 C 287.011719 217.152344 270.214844 217.585938 253.261719 218.023438 L 253.261719 212.765625 C 270.054688 212.144531 286.851563 211.523438 303.871094 210.890625 "/>
<path style=" stroke:none;fill-rule:evenodd;fill:rgb(13.729858%,12.159729%,12.548828%);fill-opacity:1;" d="M 253.492188 193.28125 L 253.492188 187.949219 C 270.164063 187.230469 286.84375 186.507813 303.707031 185.777344 C 303.820313 187.648438 303.914063 189.453125 304.023438 191.589844 C 287.1875 192.152344 270.410156 192.714844 253.492188 193.28125 "/>
<path style=" stroke:none;fill-rule:evenodd;fill:rgb(13.729858%,12.159729%,12.548828%);fill-opacity:1;" d="M 303.761719 198.34375 L 303.761719 204.070313 C 287.011719 204.585938 270.332031 205.09375 253.507813 205.601563 L 253.507813 200.273438 C 270.199219 199.632813 286.859375 198.996094 303.761719 198.34375 "/>
<path style=" stroke:none;fill-rule:evenodd;fill:rgb(13.729858%,12.159729%,12.548828%);fill-opacity:1;" d="M 278.933594 116.164063 C 278.058594 113.8125 279.875 111.148438 277.582031 109.296875 C 277.765625 108.714844 277.960938 108.160156 278.105469 107.605469 C 278.460938 106.324219 278.285156 104.75 280.164063 104.367188 C 280.519531 104.285156 280.761719 103.554688 281.023438 103.109375 C 282.597656 100.464844 284.144531 97.816406 285.777344 95.050781 C 286.253906 95.300781 286.683594 95.511719 287.273438 95.808594 C 286.195313 97.648438 285.308594 99.460938 284.175781 101.097656 C 281.300781 105.191406 279.960938 109.648438 280.464844 114.640625 C 280.578125 115.742188 280.472656 116.710938 278.933594 116.164063 "/>
<path style=" stroke:none;fill-rule:evenodd;fill:rgb(13.729858%,12.159729%,12.548828%);fill-opacity:1;" d="M 280.484375 87.875 L 280.484375 92.464844 C 279.898438 92.492188 279.375 92.519531 278.714844 92.558594 L 278.714844 87.992188 C 279.273438 87.960938 279.804688 87.925781 280.484375 87.875 "/>
<path style=" stroke:none;fill-rule:evenodd;fill:rgb(13.729858%,12.159729%,12.548828%);fill-opacity:1;" d="M 288.625 124.523438 C 287.839844 123.234375 287.136719 122.070313 286.328125 120.757813 C 286.84375 120.417969 287.300781 120.117188 287.851563 119.742188 C 288.625 121.046875 289.328125 122.210938 290.113281 123.527344 C 289.613281 123.859375 289.160156 124.160156 288.625 124.523438 "/>
<path style=" stroke:none;fill-rule:evenodd;fill:rgb(13.729858%,12.159729%,12.548828%);fill-opacity:1;" d="M 271.414063 94.804688 C 270.535156 93.378906 269.871094 92.273438 269.105469 91.03125 C 269.613281 90.683594 270.054688 90.382813 270.636719 89.996094 C 271.414063 91.289063 272.105469 92.460938 272.910156 93.789063 C 272.410156 94.132813 271.964844 94.429688 271.414063 94.804688 "/>
<path style=" stroke:none;fill-rule:evenodd;fill:rgb(13.729858%,12.159729%,12.548828%);fill-opacity:1;" d="M 270.71875 124.527344 C 268.148438 123.152344 270.378906 122.082031 270.671875 120.996094 C 270.992188 119.800781 271.769531 119.6875 272.8125 120.671875 C 272.152344 121.882813 271.46875 123.128906 270.71875 124.527344 "/>
<path style=" stroke:none;fill-rule:evenodd;fill:rgb(13.729858%,12.159729%,12.548828%);fill-opacity:1;" d="M 287.652344 95.101563 C 285.625 92.667969 288.390625 91.765625 288.265625 89.988281 C 289.035156 90.40625 289.457031 90.636719 290.113281 90.976563 C 289.351563 92.261719 288.625 93.46875 287.652344 95.101563 "/>
<path style=" stroke:none;fill-rule:evenodd;fill:rgb(13.729858%,12.159729%,12.548828%);fill-opacity:1;" d="M 292.4375 98.933594 C 293.535156 98.253906 294.625 97.582031 295.867188 96.808594 C 296.226563 97.300781 296.535156 97.730469 296.839844 98.152344 C 294.285156 100.417969 293.582031 100.5625 292.4375 98.933594 "/>
<path style=" stroke:none;fill-rule:evenodd;fill:rgb(13.729858%,12.159729%,12.548828%);fill-opacity:1;" d="M 262.421875 98.3125 C 262.632813 97.894531 262.859375 97.457031 263.179688 96.835938 C 264.429688 97.570313 265.578125 98.246094 266.726563 98.921875 C 265.824219 100.679688 265.605469 100.636719 262.421875 98.3125 "/>
<path style=" stroke:none;fill-rule:evenodd;fill:rgb(13.729858%,12.159729%,12.548828%);fill-opacity:1;" d="M 280.535156 122.183594 C 280.535156 123.34375 280.597656 124.511719 280.503906 125.667969 C 280.464844 126.023438 279.964844 126.332031 279.699219 126.660156 C 279.410156 126.371094 278.949219 126.105469 278.917969 125.792969 C 278.8125 124.820313 278.765625 123.820313 278.917969 122.867188 C 278.992188 122.457031 279.59375 122.128906 279.960938 121.761719 C 280.148438 121.902344 280.34375 122.039063 280.535156 122.183594 "/>
<path style=" stroke:none;fill-rule:evenodd;fill:rgb(13.729858%,12.159729%,12.548828%);fill-opacity:1;" d="M 266.875 115.972656 C 265.226563 115.796875 264.253906 118.746094 262.382813 116.453125 C 265.300781 114.039063 265.703125 113.964844 266.875 115.972656 "/>
<path style=" stroke:none;fill-rule:evenodd;fill:rgb(13.729858%,12.159729%,12.548828%);fill-opacity:1;" d="M 292.609375 115.625 C 292.804688 115.207031 293.011719 114.78125 293.316406 114.152344 C 294.53125 114.824219 295.628906 115.429688 296.707031 116.027344 C 295.972656 118.015625 295.945313 118.015625 292.609375 115.625 "/>
<path style=" stroke:none;fill-rule:evenodd;fill:rgb(13.729858%,12.159729%,12.548828%);fill-opacity:1;" d="M 298.824219 106.480469 C 298.972656 108.179688 298.972656 108.25 297.265625 108.164063 C 296.515625 108.121094 294.855469 108.691406 295.25 107.308594 C 295.765625 105.449219 297.609375 106.882813 298.824219 106.480469 "/>
<path style=" stroke:none;fill-rule:evenodd;fill:rgb(13.729858%,12.159729%,12.548828%);fill-opacity:1;" d="M 262.242188 106 C 262.984375 106.535156 263.542969 106.9375 264.121094 107.34375 C 263.449219 107.628906 262.792969 108.136719 262.132813 108.132813 C 261.488281 108.125 260.851563 107.582031 260.214844 107.277344 C 260.820313 106.894531 261.417969 106.515625 262.242188 106 "/>
<path style=" stroke:none;fill-rule:evenodd;fill:rgb(97.415161%,86.859131%,2.79541%);fill-opacity:1;" d="M 322.253906 223.652344 L 325.40625 223.652344 C 325.5 222.121094 325.605469 220.664063 325.644531 219.210938 C 325.683594 218.019531 325.195313 217.054688 324.160156 216.441406 C 323.746094 216.207031 323.632813 215.910156 323.632813 215.449219 C 323.636719 214.953125 323.492188 214.460938 323.414063 213.957031 C 323.28125 213.066406 323.429688 212.617188 324.222656 212.25 C 324.761719 211.996094 324.972656 211.613281 324.984375 211.082031 C 325.019531 210.078125 325.019531 209.070313 325.0625 208.066406 C 325.085938 207.46875 325.164063 206.878906 325.1875 206.273438 C 325.238281 205.082031 325.007813 204.675781 323.898438 204.277344 C 323.480469 204.121094 323.265625 203.90625 323.246094 203.484375 C 323.207031 202.320313 323.179688 201.160156 323.179688 199.992188 C 323.179688 199.820313 323.359375 199.609375 323.507813 199.488281 C 323.699219 199.332031 323.945313 199.25 324.171875 199.128906 C 324.742188 198.820313 325.046875 198.375 325.023438 197.679688 C 325.007813 195.710938 325.023438 193.730469 325.023438 191.699219 C 324.3125 191.539063 323.636719 191.394531 322.949219 191.234375 C 322.949219 191.03125 322.917969 190.84375 322.964844 190.675781 C 323.191406 189.726563 323.402344 188.769531 323.699219 187.84375 C 323.863281 187.339844 324.082031 186.847656 324.402344 186.425781 C 324.789063 185.886719 325.046875 185.34375 325.085938 184.691406 C 325.113281 183.90625 325.179688 183.125 325.125 182.335938 C 325.046875 181.140625 324.648438 180.082031 323.574219 179.355469 C 322.925781 178.910156 322.574219 178.238281 322.5 177.4375 C 322.464844 177.066406 322.410156 176.6875 322.410156 176.3125 C 322.371094 168.785156 322.355469 161.257813 322.347656 153.726563 C 322.347656 153.40625 322.332031 153.09375 322.355469 152.78125 C 322.464844 151.660156 322.964844 151.09375 324.078125 150.847656 C 324.285156 150.800781 324.515625 150.746094 324.773438 150.683594 C 324.695313 149.246094 324.632813 147.835938 324.554688 146.425781 C 324.527344 145.855469 324.46875 145.289063 324.40625 144.726563 C 324.339844 144.003906 324.0625 143.398438 323.347656 143.070313 C 322.710938 142.785156 322.355469 142.269531 322.355469 141.582031 C 322.347656 139.695313 322.351563 137.808594 322.351563 135.753906 C 328.164063 138.449219 333.402344 141.8125 338.191406 145.902344 C 347.710938 154.039063 354.644531 163.996094 358.816406 175.804688 C 367.019531 198.945313 362.128906 223.660156 348.90625 240.949219 C 348.460938 240.839844 347.972656 240.742188 347.496094 240.613281 C 340.746094 238.792969 333.910156 237.355469 327.003906 236.296875 C 325.835938 236.121094 324.699219 235.898438 323.558594 235.703125 C 322.886719 235.582031 322.28125 235.375 321.847656 234.730469 C 323.125 234.042969 324.484375 234.539063 325.816406 234.398438 C 325.816406 233.035156 325.835938 231.714844 325.800781 230.410156 C 325.769531 229.613281 325.226563 229.113281 324.539063 228.765625 C 323.976563 228.476563 323.414063 228.203125 322.867188 227.886719 C 322.046875 227.402344 321.730469 226.652344 321.867188 225.714844 C 321.976563 225.070313 322.117188 224.429688 322.253906 223.652344 "/>
<path style=" stroke:none;fill-rule:evenodd;fill:rgb(97.415161%,86.859131%,2.79541%);fill-opacity:1;" d="M 245.90625 200.75 L 245.90625 205.6875 L 242.570313 205.6875 C 242.488281 208.179688 242.554688 210.578125 242.53125 213.070313 L 245.949219 213.070313 C 245.949219 215.019531 245.976563 216.882813 245.925781 218.84375 L 242.605469 218.84375 L 242.605469 225.433594 L 245.90625 225.433594 L 245.90625 231.40625 L 242.554688 231.40625 L 242.554688 237.246094 C 240.078125 237.683594 237.671875 238.117188 235.183594 238.558594 C 229.503906 230.21875 225.742188 221.085938 224.078125 211.132813 C 221.664063 196.785156 223.429688 182.964844 229.519531 169.726563 C 233.195313 161.726563 241.828125 150.101563 245.894531 147.632813 L 245.894531 169.714844 L 242.722656 169.714844 C 242.492188 170.433594 242.441406 174.117188 242.644531 175.421875 L 245.78125 175.421875 C 245.996094 176.125 246.042969 180.601563 245.859375 182.054688 L 242.578125 182.054688 L 242.578125 187.703125 L 245.746094 187.703125 C 245.996094 188.425781 246.054688 192.476563 245.890625 194.277344 L 242.601563 194.277344 L 242.601563 200.75 "/>
</g>
</svg>
